<svg xmlns="http://www.w3.org/2000/svg" data-name="Layer 1" viewBox="0 0 512 512" id="tori-gate"><path fill="#fd4755" d="M88.81 155.71h49.39V412.5H88.81z"></path><path fill="#fd4755" d="M148 113.52v42.19a15 15 0 0 1-15 15H94a15 15 0 0 1-15-15v-42.19Z"></path><path fill="#fb2b3a" d="M118 113.52v27.19a15 15 0 0 1-15 15H79a15 15 0 0 0 15 15h39a15 15 0 0 0 15-15v-42.19Z"></path><rect width="84" height="92" x="71.5" y="412.5" fill="#554e56" rx="15"></rect><path fill="#fd4755" d="M373.81 155.71h49.38V412.5h-49.38z"></path><path fill="#fd4755" d="M433 110.24v47a15 15 0 0 1-15 15h-39a15 15 0 0 1-15-15v-47Z"></path><path fill="#fb2b3a" d="M403 110.24v32a15 15 0 0 1-15 15h-24a15 15 0 0 0 15 15h39a15 15 0 0 0 15-15v-47Z"></path><rect width="84" height="92" x="356.5" y="412.5" fill="#554e56" rx="15"></rect><path fill="#433f43" d="M425.5 412.5h-15v23a54 54 0 0 1-54 54 15 15 0 0 0 15 15h54a15 15 0 0 0 15-15v-62a15 15 0 0 0-15-15zm-285 0h-15v23a54 54 0 0 1-54 54 15 15 0 0 0 15 15h54a15 15 0 0 0 15-15v-62a15 15 0 0 0-15-15z"></path><path fill="#fd4755" d="M231.37 123.71h49.26v83.13h-49.26z"></path><path fill="#fd4755" d="M437 123.71H75a15 15 0 0 1-14.49-11.12l-12-44.88h415l-12 44.88A15 15 0 0 1 437 123.71Z"></path><path fill="#fb2b3a" d="M429.48 67.71a55.3 55.3 0 0 1-53.43 41H59.48l1 3.88A15 15 0 0 0 75 123.71h362a15 15 0 0 0 14.49-11.12l12-44.88Z"></path><path fill="#554e56" d="M7.82 7.5A160.19 160.19 0 0 0 108 42.74h295.76a160.08 160.08 0 0 0 92.06-29.14l8.68-6.1-2.2 27.69a106.47 106.47 0 0 1-88 46.71H89A91.9 91.9 0 0 1 7.5 32.4Z"></path><path fill="#433f43" d="M21.85 17.55a157.42 157.42 0 0 1-14-10l-.05 4q6.87 3.31 14.05 6zm473.97-3.95A160.57 160.57 0 0 1 463.88 31a106.39 106.39 0 0 1-79.62 35.9H59a91.56 91.56 0 0 1-25.3-3.57A91.64 91.64 0 0 0 89 81.9h325.26a106.47 106.47 0 0 0 88-46.71L504.5 7.5z"></path><rect width="443" height="50.23" x="34.5" y="206.84" fill="#fd4755" rx="14"></rect><path fill="#fb2b3a" d="M463.5 206.84h-16a35.24 35.24 0 0 1-35.23 35.24H34.5v1a14 14 0 0 0 14 14h415a14 14 0 0 0 14-14v-22.24a14 14 0 0 0-14-14ZM373.81 192.94h49.38v13.91h-49.38zM231.31 192.94h49.38v13.91h-49.38zM88.81 192.94h49.38v13.91H88.81z"></path></svg>